<svg width="25" height="25" viewBox="0 0 25 25" fill="none" xmlns="http://www.w3.org/2000/svg">
<g clip-path="url(#clip0_4_2)">
<circle cx="11.7647" cy="11.7647" r="8.82353" fill="#D9D9D9"/>
<path fill-rule="evenodd" clip-rule="evenodd" d="M12.5 0C19.4031 0 25 5.59692 25 12.5C25 19.4031 19.4031 25 12.5 25C5.59692 25 0 19.4031 0 12.5C0 5.59692 5.59692 0 12.5 0ZM10.6934 17.0898C10.3231 17.2139 9.94466 17.3279 9.57438 17.45C9.2041 17.5741 8.83382 17.6961 8.4554 17.8202C7.57243 18.1051 7.09025 18.2658 6.98446 18.2943C6.8807 18.3228 6.9458 17.9159 7.16553 17.0614L7.86743 14.3778L13.1592 8.87655L15.977 11.5885L10.6934 17.0898ZM15.9668 6.88477C15.8346 6.76066 15.682 6.69556 15.5111 6.7037C15.3402 6.7037 15.1876 6.77083 15.0655 6.90308L14.0605 7.94678L16.8783 10.6689L17.8935 9.60693C18.0176 9.48283 18.0644 9.3221 18.0644 9.1512C18.0644 8.98031 17.9972 8.81958 17.8752 8.70565L15.9668 6.88477Z" fill="#303030"/>
</g>
<defs>
<clipPath id="clip0_4_2">
<rect width="25" height="25" fill="white"/>
</clipPath>
</defs>
</svg>
